# AST/ASF file generated using VICON BodyLanguage
# -----------------------------------------------
:version 1.10
:name VICON
:units
  mass 1.0
  length 0.45
  angle deg
:documentation
   .ast/.asf automatically generated from VICON data using
   VICON BodyBuilder and BodyLanguage model FoxedUp or BRILLIANT.MOD
:root
   order TX TY TZ RX RY RZ
   axis XYZ
   position 0 0 0  
   orientation 0 0 0 
:bonedata
  begin
     id 1 
     name lhipjoint
     direction 0.707368 -0.647095 0.284426 
     length 2.60678 
     axis 0 0 0  XYZ
  end
  begin
     id 2 
     name lfemur
     direction 0.34202 -0.939693 0  
     length 6.63812  
     axis 0 0 20  XYZ
    dof rx ry rz
    limits (-160.0 20.0)
           (-70.0 70.0)
           (-60.0 70.0)
  end
  begin
     id 3 
     name ltibia
     direction 0.34202 -0.939693 0   
     length 7.51178   
     axis 0 0 20   XYZ
    dof rx
    limits (-10.0 170.0)
  end
  begin
     id 4 
     name lfoot
     direction 0.121251 -0.333133 0.935051   
     length 1.83716   
     axis -90 7.62852e-016 20   XYZ
    dof rx rz
    limits (-45.0 90.0)
           (-70.0 20.0)
  end
  begin
     id 5 
     name ltoes
     direction 1.53611e-011 -4.21962e-011 1   
     length 0.916133   
     axis -90 7.62852e-016 20   XYZ
    dof rx
    limits (-90.0 20.0)
  end
  begin
     id 6 
     name rhipjoint
     direction -0.692419 -0.660507 0.290321   
     length 2.55385  
     axis 0 0 0  XYZ 
  end
  begin
     id 7 
     name rfemur
     direction -0.34202 -0.939693 0   
     length 7.29079   
     axis 0 0 -20   XYZ
    dof rx ry rz
    limits (-160.0 20.0)
           (-70.0 70.0)
           (-70.0 60.0)
  end
  begin
     id 8 
     name rtibia
     direction -0.34202 -0.939693 0   
     length 7.47143   
     axis 0 0 -20   XYZ
    dof rx
    limits (-10.0 170.0)
 end
 begin
     id 9 
     name rfoot
     direction -0.119907 -0.329441 0.936532   
     length 1.79439  
     axis -90 -7.62852e-016 -20   XYZ
    dof rx rz
    limits (-45.0 90.0)
           (-20.0 70.0)
  end
  begin
     id 10 
     name rtoes
     direction -1.53571e-011 -4.21961e-011 1   
     length 0.896039   
     axis -90 -7.62852e-016 -20   XYZ
    dof rx
    limits (-90.0 20.0)
  end
  begin
     id 11 
     name lowerback
     direction 0.0367721 0.992912 -0.113016   
     length 1.73542   
     axis 0 0 0   XYZ
    dof rx ry rz
    limits (-20.0 45.0)
           (-30.0 30.0)
           (-30.0 30.0)
  end
  begin
     id 12 
     name upperback
     direction -0.000314626 0.990678 0.136227   
     length 1.7514   
     axis 0 0 0   XYZ
    dof rx ry rz
    limits (-20.0 45.0)
           (-30.0 30.0)
           (-30.0 30.0)
  end
  begin
     id 13 
     name thorax
     direction -0.0226159 0.981151 0.191917   
     length 1.71471   
     axis 0 0 0   XYZ
    dof rx ry rz
    limits (-20.0 45.0)
           (-30.0 30.0)
           (-30.0 30.0)
  end
  begin
     id 14 
     name lowerneck
     direction 0.0219333 0.998071 0.0580739   
     length 1.65882   
     axis 0 0 0   XYZ
    dof rx ry rz
    limits (-20.0 45.0)
           (-30.0 30.0)
           (-30.0 30.0)
  end
  begin
     id 15 
     name upperneck
     direction 0.0384529 0.980058 -0.194957   
     length 1.6612   
     axis 0 0 0   XYZ
    dof rx ry rz
    limits (-20.0 45.0)
           (-30.0 30.0)
           (-30.0 30.0)
  end
  begin
     id 16
     name head
     direction 0.00592123 0.997421 -0.0715234  
     length 1.68077  
     axis 0 0 0   XYZ
    dof rx ry rz
    limits (-20.0 45.0)
           (-30.0 30.0)
           (-30.0 30.0)
  end
  begin
     id 17 
     name lclavicle
     direction 0.904803 0.417826 0.0821728  
     length 3.42227  
     axis 0 0 0   XYZ
    dof ry rz
    limits (-20.0 10.0)
           (0.0 20.0)
  end
  begin
     id 18 
     name lhumerus
     direction 1 -4.48965e-011 -2.68786e-027   
     length 5.11878   
     axis -180 -30 -90   XYZ
    dof rx ry rz
    limits (-60.0 90.0)
           (-90.0 90.0)
           (-90.0 90.0)
  end
  begin
     id 19
     name lradius
     direction 1 -4.48965e-011 2.61168e-028   
     length 3.59971   
     axis -180 -30 -90   XYZ
    dof rx
    limits (-10.0 170.0)
  end
  begin
     id 20
     name lwrist
     direction 1 -4.48965e-011 1.58672e-027   
     length 1.79985   
     axis -1.65735e-015 90 90   XYZ
    dof ry
    limits (-180.0 0.0)
 end
  begin
     id 21 
     name lhand
     direction 1 -4.48942e-011 3.17344e-027   
     length 0.62877   
     axis -2.02492e-015 90 90   XYZ
    dof rx rz
    limits (-90.0 90.0)
           (-45.0 45.0)
  end
  begin
     id 22 
     name lfingers
     direction 1 -4.49011e-011 6.34687e-027   
     length 0.506931   
     axis -4.04985e-015 90 90   XYZ
    dof rx
    limits (0.0 90.0)
  end
  begin
     id 23
     name lthumb
     direction 0.707107 -6.34982e-011 0.707107   
     length 0.727854   
     axis -90 45 2.85299e-015   XYZ
    dof rx rz
    limits (-45.0 45.0)
           (-45.0 45.0)
  end
  begin
     id 24 
     name rclavicle
     direction -0.945647 0.32488 0.0143075   
     length 3.52737  
     axis 0 0 0   XYZ 
    dof ry rz
    limits (-10.0 20.0)
           (-20.0 0.0)
  end
  begin
     id 25 
     name rhumerus
     direction -1 -4.48962e-011 1.92182e-027  
     length 5.4902   
     axis -180 30 90   XYZ
    dof rx ry rz
    limits (-90.0 60.0)
           (-90.0 90.0)
           (-90.0 90.0)
  end
  begin
     id 26 
     name rradius
     direction -1 -4.48967e-011 -5.97193e-028   
     length 3.20659   
     axis -180 30 90   XYZ
    dof rx
    limits (-10.0 170.0)
  end
  begin
     id 27 
     name rwrist
     direction -1 -4.48964e-011 1.58672e-027   
     length 1.6033   
     axis -1.65735e-015 -90 -90   XYZ
    dof ry
    limits (-180.0 0.0)
  end
  begin
     id 28
     name rhand
     direction -1 -4.49006e-011 3.17344e-027   
     length 0.691885   
     axis -2.02492e-015 -90 -90   XYZ
    dof rx rz
    limits (-90.0 90.0)
           (-45.0 45.0)
  end
  begin
     id 29
     name rfingers
     direction -1 -4.48908e-011 6.34687e-027   
     length 0.557815   
     axis -4.04985e-015 -90 -90   XYZ
    dof rx
    limits (0.0 90.0)
  end
  begin
     id 30
     name rthumb
     direction -0.707107 -6.34999e-011 0.707107   
     length 0.800915   
     axis -90 -45 -2.85299e-015   XYZ
    dof rx rz
    limits (-45.0 45.0)
           (-45.0 45.0)
  end
:hierarchy
  begin
    root lhipjoint rhipjoint lowerback
    lhipjoint lfemur
    lfemur ltibia
    ltibia lfoot
    lfoot ltoes
    rhipjoint rfemur
    rfemur rtibia
    rtibia rfoot
    rfoot rtoes
    lowerback upperback
    upperback thorax
    thorax lowerneck lclavicle rclavicle
    lowerneck upperneck
    upperneck head
    lclavicle lhumerus
    lhumerus lradius
    lradius lwrist
    lwrist lhand lthumb
    lhand lfingers
    rclavicle rhumerus
    rhumerus rradius
    rradius rwrist
    rwrist rhand rthumb
    rhand rfingers
  end

#!OML:ASF I:\Actors\actors\Patient Classification 1\Patient 1\Session 1\Subject1.ASF
:FULLY-SPECIFIED
:DEGREES
214
root -0.0165728 17.5269 8.14788 9.41229 -2.17546 -6.03952
lowerback 0.297037 1.18834 2.19932
upperback -11.4969 1.86593 0.968179
thorax -12.5121 0.74162 -0.37893
lowerneck -10.283 -5.4337 -2.77036
upperneck 19.2015 -8.93692 8.99062
head 8.18422 -3.62759 2.51595
rclavicle 1.47101e-014 1.39149e-014
rhumerus -55.2306 -41.1446 -51.0246
rradius 22.0651
rwrist 53.4483
rhand 12.2105 -28.8146
rfingers 7.12502
rthumb 37.2198 -54.822
lclavicle 1.47101e-014 1.39149e-014
lhumerus -49.4997 29.391 64.586
lradius 20.242
lwrist -35.5568
lhand -15.4843 -10.0116
lfingers 7.12502
lthumb 10.6976 19.696
rfemur -4.91961 26.0056 20.116
rtibia 1.12696
rfoot -11.7354 -26.9558
rtoes 4.84162
lfemur 5.61247 -49.9269 -15.4586
ltibia -4.18067
lfoot -38.4899 59.0492
ltoes 22.7815
215
root -0.0168312 17.5266 8.1487 9.40553 -2.18933 -6.05445
lowerback 0.27481 1.19255 2.21545
upperback -11.5292 1.87316 0.971757
thorax -12.5363 0.74328 -0.384485
lowerneck -10.4701 -5.42778 -2.80978
upperneck 19.8208 -8.96423 8.89555
head 8.4251 -3.62669 2.48474
rclavicle -1.04362e-014 -6.75868e-015
rhumerus -55.3998 -41.3374 -50.7406
rradius 22.0065
rwrist 53.6643
rhand 12.1579 -28.8569
rfingers 7.12502
rthumb 37.1701 -54.8772
lclavicle -1.04362e-014 -6.75868e-015
lhumerus -49.6658 29.8016 64.1541
lradius 20.1343
lwrist -36.0355
lhand -15.4119 -9.95707
lfingers 7.12502
lthumb 10.7675 19.747
rfemur -4.94977 25.8822 20.1342
rtibia 1.18597
rfoot -11.6538 -26.8174
rtoes 4.56435
lfemur 5.60368 -49.8494 -15.4335
ltibia -4.17823
lfoot -38.5685 58.9715
ltoes 22.9616
216
root -0.0167324 17.5262 8.15012 9.36224 -2.22022 -6.09551
lowerback 0.278031 1.20757 2.25391
upperback -11.5345 1.89777 0.984362
thorax -12.5437 0.751918 -0.394956
lowerneck -10.5932 -5.44442 -2.79572
upperneck 20.2263 -9.00363 8.76904
head 8.58035 -3.63976 2.43363
rclavicle 1.49089e-014 -6.75868e-015
rhumerus -55.4436 -41.4517 -50.6115
rradius 21.9563
rwrist 53.7221
rhand 11.9876 -28.7231
rfingers 7.12502
rthumb 37.009 -54.7853
lclavicle 1.49089e-014 -6.75868e-015
lhumerus -49.7341 29.9708 63.9964
lradius 20.1577
lwrist -36.1515
lhand -15.4162 -9.85788
lfingers 7.12502
lthumb 10.7633 19.8464
rfemur -4.93446 25.8022 20.198
rtibia 1.24018
rfoot -11.6648 -26.6664
rtoes 4.38757
lfemur 5.63973 -49.6615 -15.406
ltibia -4.18475
lfoot -38.374 58.8574
ltoes 22.9886
217
root -0.0153991 17.5261 8.1523 9.31246 -2.25256 -6.10054
lowerback 0.293786 1.21936 2.27535
upperback -11.5208 1.91516 0.981781
thorax -12.5361 0.758029 -0.411836
lowerneck -10.7695 -5.45445 -2.78434
upperneck 20.5311 -9.03582 8.70228
head 8.71485 -3.64541 2.402
rclavicle 2.46493e-014 5.96354e-015
rhumerus -55.3179 -41.3207 -50.8583
rradius 22.0748
rwrist 53.4065
rhand 11.9683 -28.7331
rfingers 7.12502
rthumb 36.9907 -54.7999
lclavicle 2.46493e-014 5.96354e-015
lhumerus -49.688 29.8458 64.1411
lradius 20.3031
lwrist -35.8477
lhand -15.5443 -9.71968
lfingers 7.12502
lthumb 10.6397 19.9909
rfemur -4.89082 25.797 20.2203
rtibia 1.27217
rfoot -11.7238 -26.6412
rtoes 4.55854
lfemur 5.64929 -49.4089 -15.4159
ltibia -4.15809
lfoot -37.9537 58.7117
ltoes 22.7663
218
root -0.0149741 17.5264 8.15376 9.2697 -2.25662 -6.06049
lowerback 0.321544 1.22303 2.24961
upperback -11.4946 1.9165 0.960775
thorax -12.522 0.760182 -0.420962
lowerneck -10.9985 -5.45012 -2.77213
upperneck 20.8036 -9.05174 8.66858
head 8.84941 -3.63938 2.3818
rclavicle -6.06293e-015 -3.57812e-015
rhumerus -55.0894 -41.0155 -51.3862
rradius 22.3521
rwrist 52.8189
rhand 12.0451 -28.7963
rfingers 7.12502
rthumb 37.0634 -54.8443
lclavicle -6.06293e-015 -3.57812e-015
lhumerus -49.5991 29.715 64.2996
lradius 20.4512
lwrist -35.5625
lhand -15.6561 -9.56428
lfingers 7.12502
lthumb 10.5319 20.1519
rfemur -4.8505 25.8088 20.1891
rtibia 1.29237
rfoot -11.7651 -26.6805
rtoes 4.80555
lfemur 5.66816 -49.2924 -15.4822
ltibia -4.13588
lfoot -37.9192 58.5759
ltoes 22.8123
